# Blender v2.93.4 OBJ File: ''
# www.blender.org
mtllib bomb.mtl
o Icosphere.001
v 0.000000 -1.000000 -0.000000
v 0.425323 -0.850654 0.309011
v -0.162456 -0.850654 0.499995
v 0.723607 -0.447220 0.525725
v 0.850648 -0.525736 -0.000000
v -0.525730 -0.850652 -0.000000
v -0.162456 -0.850654 -0.499995
v 0.425323 -0.850654 -0.309011
v 0.951058 -0.000000 0.309013
v -0.276388 -0.447220 0.850649
v 0.262869 -0.525738 0.809012
v 0.000000 -0.000000 1.000000
v -0.894426 -0.447216 -0.000000
v -0.688189 -0.525736 0.499997
v -0.951058 -0.000000 0.309013
v -0.276388 -0.447220 -0.850649
v -0.688189 -0.525736 -0.499997
v -0.587786 0.000000 -0.809017
v 0.723607 -0.447220 -0.525725
v 0.262869 -0.525738 -0.809012
v 0.587786 0.000000 -0.809017
v 0.587786 -0.000000 0.809017
v -0.587786 -0.000000 0.809017
v -0.951058 0.000000 -0.309013
v 0.000000 0.000000 -1.000000
v 0.951058 0.000000 -0.309013
v 0.276388 0.447220 0.850649
v 0.688189 0.525736 0.499997
v 0.162456 0.850654 0.499995
v -0.723607 0.447220 0.525725
v -0.262869 0.525738 0.809012
v -0.425323 0.850654 0.309011
v -0.723607 0.447220 -0.525725
v -0.850648 0.525736 0.000000
v -0.425323 0.850654 -0.309011
v 0.276388 0.447220 -0.850649
v -0.262869 0.525738 -0.809012
v 0.162456 0.850654 -0.499995
v 0.894426 0.447216 0.000000
v 0.688189 0.525736 -0.499997
v 0.525730 0.850652 0.000000
v 0.525730 1.136779 0.000000
v 0.162456 1.136778 0.499995
v -0.425323 1.136778 -0.309011
v 0.162456 1.136778 -0.499995
v -0.425323 1.136778 0.309011
v 0.077226 1.120086 -0.237683
v 0.249916 1.120086 0.000000
v -0.202186 1.120086 0.146895
v -0.202186 1.120086 -0.146895
v 0.077226 1.120086 0.237683
v -0.232410 1.682261 0.191516
v 0.010238 1.738429 0.035692
v 0.139369 1.506958 0.430305
v -0.152603 1.539206 0.435398
v 0.240014 1.630085 0.183272
v -0.003677 1.581066 0.234262
vt 0.122176 0.390844
vt 0.186082 0.486029
vt 0.045816 0.486030
vt 0.238636 0.599132
vt 0.311832 0.508941
vt 0.016423 0.386513
vt 1.000000 0.212622
vt 0.944632 0.320525
vt 0.885732 0.221947
vt 0.954185 0.099519
vt 0.317737 0.645532
vt 0.000000 0.599133
vt 0.114269 0.608459
vt 0.055368 0.707038
vt 0.585143 0.684144
vt 0.472416 0.633972
vt 0.595010 0.562858
vt 0.505642 0.000000
vt 0.628626 0.006076
vt 0.560505 0.091206
vt 0.187330 0.376850
vt 0.071000 0.386513
vt 0.117346 0.277880
vt 0.195635 0.707038
vt 0.376574 0.563687
vt 0.371415 0.449740
vt 0.472416 0.492054
vt 0.692369 0.635105
vt 0.422067 0.086640
vt 0.259215 0.277881
vt 0.760342 0.571771
vt 0.809729 0.457292
vt 0.882259 0.570961
vt 0.878261 0.769203
vt 0.809728 0.686867
vt 0.951570 0.687008
vt 0.606939 0.207772
vt 0.688167 0.268622
vt 0.560507 0.318413
vt 0.371415 0.200003
vt 0.481608 0.208766
vt 0.422070 0.313847
vt 0.307900 0.167751
vt 0.188216 0.154975
vt 0.256538 0.064743
vt 0.360723 0.399867
vt 0.317737 0.523230
vt 0.317737 0.386513
vt 0.114670 0.064742
vt 0.066539 0.167749
vt 0.414446 0.374060
vt 0.272229 0.936887
vt 0.193561 0.827479
vt 0.258358 0.828264
vt 0.628628 0.373703
vt 0.692369 0.493188
vt 0.585144 0.442700
vt 0.629948 0.379328
vt 0.256890 0.000000
vt 0.207432 0.707038
vt 0.272229 0.707823
vt 0.951570 0.457434
vt 0.878262 0.378626
vt 0.688167 0.128200
vt 0.494010 0.378626
vt 0.692369 0.644832
vt 0.692370 0.502946
vt 0.761683 0.389418
vt 0.000000 0.263606
vt 0.756620 0.000000
vt 0.813919 0.099518
vt 0.688167 0.122430
vt 0.761365 0.212621
vt 0.629948 0.750872
vt 0.371415 0.263608
vt 0.300546 0.386513
vt 0.877825 0.004332
vt 0.804366 0.320525
vt 0.494010 0.750170
vt 0.371416 0.679367
vt 0.983578 0.000001
vt 0.243378 0.386513
vt 0.073933 0.922256
vt 0.149924 0.858618
vt 0.193561 0.902981
vt 0.073934 0.707038
vt 0.057910 0.810213
vt 0.000000 0.801156
vt 0.193561 0.769968
vt 0.149923 0.795387
vt 0.093056 0.867780
vt 0.093056 0.765472
vt 0.274439 0.857653
vt 0.338868 0.715706
vt 0.338868 0.871230
vt 0.427969 0.844810
vt 0.479176 0.757371
vt 0.479176 0.871590
vt 0.582954 0.768823
vt 0.647960 0.904782
vt 0.583548 0.893095
vt 0.747995 0.801092
vt 0.692369 0.917808
vt 0.699989 0.769203
vt 0.371998 0.768549
vt 0.418271 0.750872
vt 0.582954 0.771500
vt 0.582954 0.838767
vt 0.536226 0.804461
vt 0.518815 0.859711
vt 0.479176 0.805389
vt 0.518815 0.750872
vt 0.360723 0.536585
vt 0.552883 0.378626
vt 0.207432 0.936102
vt 0.115022 0.000000
vt 0.272229 0.707038
vt 0.647960 0.750872
vt 0.757047 0.917808
vt 0.371415 0.876835
vn 0.1024 -0.9435 0.3151
vn 0.7002 -0.6617 0.2680
vn -0.2680 -0.9435 0.1947
vn -0.2680 -0.9435 -0.1947
vn 0.1024 -0.9435 -0.3151
vn 0.9050 -0.3304 0.2680
vn 0.0247 -0.3304 0.9435
vn -0.8897 -0.3304 0.3151
vn -0.5746 -0.3304 -0.7488
vn 0.5346 -0.3304 -0.7779
vn 0.8026 -0.1256 0.5831
vn -0.3066 -0.1256 0.9435
vn -0.9921 -0.1256 -0.0000
vn -0.3066 -0.1256 -0.9435
vn 0.8026 -0.1256 -0.5831
vn 0.4089 0.6617 0.6284
vn -0.4713 0.6617 0.5831
vn -0.7002 0.6617 -0.2680
vn 0.0385 0.6617 -0.7488
vn 0.7240 0.6617 -0.1947
vn 0.8090 -0.0000 0.5878
vn 0.4911 0.7947 -0.3568
vn 0.4089 0.6617 -0.6284
vn -0.3090 0.0000 -0.9511
vn -0.1876 0.7947 -0.5773
vn -0.4713 0.6617 -0.5831
vn -0.3090 -0.0000 0.9511
vn -0.6071 0.7947 0.0000
vn -0.7002 0.6617 0.2680
vn 0.8090 0.0000 -0.5878
vn -0.1876 0.7947 0.5773
vn 0.0385 0.6617 0.7488
vn -1.0000 -0.0000 0.0000
vn 0.4911 0.7947 0.3568
vn 0.7240 0.6617 0.1947
vn 0.8897 0.3304 -0.3151
vn 0.7947 0.1876 -0.5773
vn 0.5746 0.3304 -0.7488
vn -0.0247 0.3304 -0.9435
vn -0.3035 0.1876 -0.9342
vn -0.5346 0.3304 -0.7779
vn -0.9050 0.3304 -0.2680
vn -0.9822 0.1876 0.0000
vn -0.9050 0.3304 0.2680
vn -0.5346 0.3304 0.7779
vn -0.3035 0.1876 0.9342
vn -0.0247 0.3304 0.9435
vn 0.5746 0.3304 0.7488
vn 0.7947 0.1876 0.5773
vn 0.8897 0.3304 0.3151
vn 0.3066 0.1256 -0.9435
vn 0.3035 -0.1876 -0.9342
vn 0.0247 -0.3304 -0.9435
vn -0.8026 0.1256 -0.5831
vn -0.7947 -0.1876 -0.5773
vn -0.8897 -0.3304 -0.3151
vn -0.8026 0.1256 0.5831
vn -0.7947 -0.1876 0.5773
vn -0.5746 -0.3304 0.7488
vn 0.3066 0.1256 0.9435
vn 0.3035 -0.1876 0.9342
vn 0.5346 -0.3304 0.7779
vn 0.9921 0.1256 0.0000
vn 0.9822 -0.1876 -0.0000
vn 0.9050 -0.3304 -0.2680
vn 0.4713 -0.6617 -0.5831
vn 0.1876 -0.7947 -0.5773
vn -0.0385 -0.6617 -0.7488
vn -0.4089 -0.6617 -0.6284
vn -0.4911 -0.7947 -0.3568
vn -0.7240 -0.6617 -0.1947
vn -0.7240 -0.6617 0.1947
vn -0.4911 -0.7947 0.3568
vn -0.4089 -0.6617 0.6284
vn 0.7002 -0.6617 -0.2680
vn 0.6071 -0.7947 0.0000
vn 0.3313 -0.9435 -0.0000
vn -0.0385 -0.6617 0.7488
vn 0.1876 -0.7947 0.5773
vn 0.4713 -0.6617 0.5831
vn -0.0604 0.9972 0.0438
vn 0.0746 0.9972 0.0000
vn -0.0604 0.9972 -0.0438
vn 0.0231 0.9972 0.0709
vn 0.0231 0.9972 -0.0709
vn -0.4275 0.3880 -0.8165
vn -0.4275 0.3880 -0.8166
vn -0.1563 -0.4902 0.8575
vn 0.6998 0.3084 -0.6443
vn -0.9895 -0.0635 0.1300
vn -0.9895 -0.0635 0.1299
vn 0.8713 -0.2320 0.4324
vn -0.0281 0.7844 0.6196
vn 0.2199 0.7570 0.6153
vn 0.3054 0.8616 0.4054
vn 0.1102 0.9536 0.2801
vn -0.0959 0.9059 0.4124
usemtl None.001
s 1
f 1/1/1 2/2/1 3/3/1
f 4/4/2 2/2/2 5/5/2
f 1/1/3 3/3/3 6/6/3
f 1/7/4 6/8/4 7/9/4
f 1/7/5 7/9/5 8/10/5
f 4/4/6 5/5/6 9/11/6
f 10/12/7 11/13/7 12/14/7
f 13/15/8 14/16/8 15/17/8
f 16/18/9 17/19/9 18/20/9
f 19/21/10 20/22/10 21/23/10
f 4/4/11 9/11/11 22/24/11
f 10/25/12 12/26/12 23/27/12
f 13/15/13 15/17/13 24/28/13
f 16/18/14 18/20/14 25/29/14
f 19/21/15 21/23/15 26/30/15
f 27/31/16 28/32/16 29/33/16
f 30/34/17 31/35/17 32/36/17
f 33/37/18 34/38/18 35/39/18
f 36/40/19 37/41/19 38/42/19
f 39/43/20 40/44/20 41/45/20
f 29/46/21 42/47/21 43/48/21
f 41/45/22 40/44/22 38/49/22
f 40/44/23 36/50/23 38/49/23
f 35/39/24 45/51/24 38/42/24
f 38/42/25 37/41/25 35/39/25
f 37/41/26 33/37/26 35/39/26
f 29/52/27 46/53/27 32/54/27
f 35/39/28 34/38/28 32/55/28
f 34/56/29 30/57/29 32/58/29
f 38/49/30 42/59/30 41/45/30
f 32/36/31 31/35/31 29/33/31
f 31/35/32 27/31/32 29/33/32
f 32/54/33 44/60/33 35/61/33
f 29/33/34 28/32/34 41/62/34
f 28/32/35 39/63/35 41/62/35
f 26/30/36 40/44/36 39/43/36
f 26/30/37 21/23/37 40/44/37
f 21/23/38 36/50/38 40/44/38
f 25/29/39 37/41/39 36/40/39
f 25/29/40 18/20/40 37/41/40
f 18/20/41 33/37/41 37/41/41
f 24/64/42 34/38/42 33/37/42
f 24/28/43 15/17/43 34/56/43
f 15/17/44 30/57/44 34/56/44
f 23/27/45 31/65/45 30/57/45
f 23/27/46 12/26/46 31/65/46
f 12/66/47 27/31/47 31/35/47
f 22/67/48 28/32/48 27/31/48
f 22/67/49 9/68/49 28/32/49
f 9/68/50 39/63/50 28/32/50
f 21/23/51 25/69/51 36/50/51
f 21/70/52 20/71/52 25/72/52
f 20/71/53 16/73/53 25/72/53
f 18/20/54 24/64/54 33/37/54
f 18/20/55 17/19/55 24/64/55
f 17/74/56 13/15/56 24/28/56
f 15/17/57 23/27/57 30/57/57
f 15/17/58 14/16/58 23/27/58
f 14/16/59 10/25/59 23/27/59
f 12/66/60 22/67/60 27/31/60
f 12/14/61 11/13/61 22/24/61
f 11/13/62 4/4/62 22/24/62
f 9/75/63 26/30/63 39/43/63
f 9/75/64 5/76/64 26/30/64
f 5/76/65 19/21/65 26/30/65
f 8/10/66 20/71/66 19/77/66
f 8/10/67 7/9/67 20/71/67
f 7/9/68 16/73/68 20/71/68
f 7/9/69 17/78/69 16/73/69
f 7/9/70 6/8/70 17/78/70
f 6/79/71 13/15/71 17/74/71
f 6/79/72 14/16/72 13/15/72
f 6/79/73 3/80/73 14/16/73
f 3/80/74 10/25/74 14/16/74
f 5/81/75 8/10/75 19/77/75
f 5/5/76 2/2/76 8/82/76
f 2/2/77 1/1/77 8/82/77
f 3/3/78 11/13/78 10/12/78
f 3/3/79 2/2/79 11/13/79
f 2/2/80 4/4/80 11/13/80
f 45/83/81 48/84/81 42/85/81
f 46/86/82 50/87/82 44/88/82
f 43/89/83 48/84/83 51/90/83
f 44/88/84 47/91/84 45/83/84
f 46/86/85 51/90/85 49/92/85
f 50/93/86 53/94/87 47/95/87
f 51/96/88 55/97/88 49/98/88
f 48/99/89 53/100/89 56/101/89
f 49/102/90 52/103/90 50/104/91
f 51/96/92 56/105/92 54/106/92
f 56/107/93 53/108/93 57/109/93
f 53/108/94 52/110/94 57/109/94
f 52/110/95 55/111/95 57/109/95
f 55/111/96 54/112/96 57/109/96
f 54/112/97 56/107/97 57/109/97
f 29/46/21 41/113/21 42/47/21
f 35/39/24 44/114/24 45/51/24
f 29/52/27 43/115/27 46/53/27
f 38/49/30 45/116/30 42/59/30
f 32/54/33 46/53/33 44/60/33
f 45/83/81 47/91/81 48/84/81
f 46/86/82 49/92/82 50/87/82
f 43/89/83 42/85/83 48/84/83
f 44/88/84 50/87/84 47/91/84
f 46/86/85 43/89/85 51/90/85
f 50/93/86 52/117/87 53/94/87
f 51/96/88 54/106/88 55/97/88
f 48/99/89 47/118/89 53/100/89
f 49/102/90 55/119/90 52/103/90
f 51/96/92 48/120/92 56/105/92
