# Blender v2.93.4 OBJ File: ''
# www.blender.org
mtllib fence.mtl
o Cube_Cube.001
v -0.076929 -0.076929 1.525230
v -0.076929 2.169611 1.525230
v -0.076929 -0.076929 1.192438
v -0.076929 2.169611 1.192438
v 0.076929 -0.076929 1.525230
v 0.076929 2.169611 1.525230
v 0.076929 -0.076929 1.192438
v 0.076929 2.169611 1.192438
v -0.083647 -0.082841 0.569868
v -0.067958 2.161285 0.672803
v -0.085893 -0.067577 0.237433
v -0.070203 2.176549 0.340368
v 0.070203 -0.083866 0.568781
v 0.085893 2.160259 0.671716
v 0.067958 -0.068603 0.236347
v 0.083647 2.175523 0.339282
v -0.089670 -0.075847 -0.205580
v -0.077181 2.170644 -0.213748
v -0.076554 -0.077129 -0.538111
v -0.064066 2.169362 -0.546280
v 0.064066 -0.076679 -0.199513
v 0.076554 2.169811 -0.207682
v 0.077181 -0.077961 -0.532045
v 0.089670 2.168529 -0.540213
v -0.092345 -0.082446 -1.200096
v -0.068627 2.161552 -1.095935
v -0.085187 -0.067094 -1.532457
v -0.061468 2.176904 -1.428296
v 0.061468 -0.084222 -1.196865
v 0.085187 2.159776 -1.092704
v 0.068627 -0.068870 -1.529226
v 0.092345 2.175128 -1.425065
v 0.023444 1.689990 1.835278
v 0.047162 1.829540 -1.748260
v 0.030602 1.357912 1.802364
v 0.054321 1.497462 -1.781174
v 0.177257 1.693192 1.838198
v 0.200976 1.832742 -1.745340
v 0.184416 1.361115 1.805283
v 0.208134 1.500665 -1.778254
v 0.035859 0.993410 1.803066
v 0.045244 0.616881 -1.763433
v 0.032482 0.659985 1.818132
v 0.041867 0.283457 -1.748368
v 0.189711 0.992132 1.805391
v 0.199095 0.615603 -1.761108
v 0.186334 0.658708 1.820457
v 0.195719 0.282179 -1.746042
vt 0.361255 0.487342
vt 0.289066 0.000000
vt 0.361255 0.000002
vt 0.539005 0.974545
vt 0.505632 0.487329
vt 0.539005 0.487340
vt 0.361255 0.000002
vt 0.433443 0.487340
vt 0.361255 0.487342
vt 0.539005 0.487340
vt 0.572378 0.974534
vt 0.539005 0.974545
vt 0.322432 0.631810
vt 0.355808 0.559618
vt 0.355808 0.631810
vt 0.389185 0.559618
vt 0.355808 0.631810
vt 0.355808 0.559618
vt 0.650002 0.000007
vt 0.722183 0.487334
vt 0.650002 0.487341
vt 0.644558 0.487341
vt 0.611189 0.974580
vt 0.611189 0.487357
vt 0.650002 0.487341
vt 0.577820 0.000000
vt 0.650002 0.000007
vt 0.611189 0.974580
vt 0.577820 0.487341
vt 0.611189 0.487357
vt 0.677924 0.631617
vt 0.711300 0.559482
vt 0.711300 0.631611
vt 0.711300 0.703753
vt 0.677924 0.631618
vt 0.711300 0.631624
vt 0.794346 0.487339
vt 0.866509 0.000007
vt 0.866509 0.487346
vt 0.677924 0.974500
vt 0.644558 0.487364
vt 0.677924 0.487341
vt 0.722183 0.000007
vt 0.794346 0.487339
vt 0.722183 0.487346
vt 0.289066 0.487342
vt 0.322432 0.974524
vt 0.289066 0.974501
vt 0.422568 0.631801
vt 0.389192 0.703991
vt 0.389192 0.631800
vt 0.322432 0.631811
vt 0.355808 0.704000
vt 0.322432 0.704001
vt 0.505632 0.000000
vt 0.577820 0.487329
vt 0.505632 0.487322
vt 0.466819 0.974552
vt 0.433443 0.487329
vt 0.466819 0.487334
vt 0.505632 0.000000
vt 0.433443 0.487329
vt 0.433443 0.000007
vt 0.466819 0.487334
vt 0.500194 0.974546
vt 0.466819 0.974552
vt 0.389183 0.703937
vt 0.355808 0.631823
vt 0.389183 0.631810
vt 0.711298 0.559482
vt 0.677924 0.487341
vt 0.711298 0.487355
vt 0.216808 0.004349
vt 0.289066 0.777976
vt 0.216808 0.782324
vt 0.899878 0.777500
vt 0.933246 0.000412
vt 0.933246 0.777912
vt 0.144550 0.777975
vt 0.216808 0.004349
vt 0.216808 0.782324
vt 0.899878 0.777500
vt 0.866509 0.000412
vt 0.899878 0.000000
vt 0.422572 0.559599
vt 0.389192 0.631772
vt 0.389192 0.559571
vt 0.422572 0.559543
vt 0.389192 0.487370
vt 0.422572 0.487342
vt 0.072275 0.777958
vt 0.000000 0.004338
vt 0.072275 0.000000
vt 1.000000 0.000411
vt 0.966623 0.773373
vt 0.966623 0.000000
vt 0.072275 0.777958
vt 0.144550 0.004338
vt 0.144550 0.782296
vt 0.966623 0.773373
vt 0.933246 0.000411
vt 0.966623 0.000000
vt 0.355812 0.559577
vt 0.389192 0.487382
vt 0.389192 0.559617
vt 0.322432 0.487382
vt 0.355812 0.559577
vt 0.322432 0.559618
vt 0.289066 0.487340
vt 0.505632 0.974534
vt 0.433443 0.000000
vt 0.572378 0.487329
vt 0.322432 0.559618
vt 0.389185 0.631810
vt 0.722183 0.000000
vt 0.644558 0.974564
vt 0.577820 0.487334
vt 0.577820 0.974564
vt 0.677924 0.559489
vt 0.677924 0.703746
vt 0.794346 0.000000
vt 0.644558 0.974523
vt 0.794346 0.000000
vt 0.322432 0.487365
vt 0.422568 0.703991
vt 0.355808 0.631810
vt 0.577820 0.000007
vt 0.433443 0.974546
vt 0.505632 0.487322
vt 0.500194 0.487329
vt 0.355808 0.703951
vt 0.677924 0.559469
vt 0.289066 0.000000
vt 0.899878 0.000000
vt 0.144550 0.000000
vt 0.866509 0.777912
vt 0.422572 0.631800
vt 0.389192 0.559571
vt 0.000000 0.782296
vt 1.000000 0.773784
vt 0.072275 0.000000
vt 0.933246 0.773784
vt 0.355812 0.487342
vt 0.355812 0.487342
vn -1.0000 0.0000 0.0000
vn 0.0000 0.0000 -1.0000
vn 1.0000 0.0000 0.0000
vn 0.0000 0.0000 1.0000
vn 0.0000 -1.0000 0.0000
vn 0.0000 1.0000 0.0000
vn -1.0000 0.0067 0.0071
vn -0.0067 0.0459 -0.9989
vn 1.0000 -0.0067 -0.0071
vn 0.0067 -0.0459 0.9989
vn -0.0070 -0.9989 -0.0458
vn 0.0070 0.9989 0.0458
vn -0.9992 0.0054 -0.0394
vn 0.0394 -0.0039 -0.9992
vn 0.9992 -0.0054 0.0394
vn -0.0394 0.0039 0.9992
vn -0.0056 -1.0000 0.0036
vn 0.0056 1.0000 -0.0036
vn -0.9997 0.0115 -0.0210
vn 0.0215 0.0461 -0.9987
vn 0.9997 -0.0115 0.0210
vn -0.0215 -0.0461 0.9987
vn -0.0106 -0.9989 -0.0464
vn 0.0106 0.9989 0.0464
vn -0.9998 -0.0208 -0.0074
vn 0.0215 -0.9990 -0.0388
vn 0.9998 0.0208 0.0074
vn -0.0215 0.9990 0.0388
vn -0.0168 -0.0990 0.9949
vn 0.0168 0.0990 -0.9949
vn -0.9999 0.0100 -0.0037
vn -0.0098 -0.9944 0.1050
vn 0.9999 -0.0100 0.0037
vn 0.0098 0.9944 -0.1050
vn -0.0147 0.0453 0.9989
vn 0.0147 -0.0453 -0.9989
usemtl None
s off
f 2/1/1 3/2/1 1/3/1
f 4/4/2 7/5/2 3/6/2
f 8/7/3 5/8/3 7/9/3
f 6/10/4 1/11/4 5/12/4
f 7/13/5 1/14/5 3/15/5
f 4/16/6 6/17/6 8/18/6
f 10/19/7 11/20/7 9/21/7
f 11/22/8 16/23/8 15/24/8
f 16/25/9 13/26/9 15/27/9
f 14/28/10 9/29/10 13/30/10
f 15/31/11 9/32/11 11/33/11
f 16/34/12 10/35/12 14/36/12
f 17/37/13 20/38/13 19/39/13
f 20/40/14 23/41/14 19/42/14
f 24/43/15 21/44/15 23/45/15
f 22/46/16 17/47/16 21/48/16
f 23/49/17 17/50/17 19/51/17
f 24/52/18 18/53/18 22/54/18
f 26/55/19 27/56/19 25/57/19
f 28/58/20 31/59/20 27/60/20
f 31/61/21 30/62/21 29/63/21
f 30/64/22 25/65/22 29/66/22
f 27/67/23 29/68/23 25/69/23
f 32/70/24 26/71/24 30/72/24
f 34/73/25 35/74/25 33/75/25
f 35/76/26 40/77/26 39/78/26
f 39/79/27 38/80/27 37/81/27
f 38/82/28 33/83/28 37/84/28
f 39/85/29 33/86/29 35/87/29
f 40/88/30 34/89/30 38/90/30
f 42/91/31 43/92/31 41/93/31
f 43/94/32 48/95/32 47/96/32
f 47/97/33 46/98/33 45/99/33
f 46/100/34 41/101/34 45/102/34
f 47/103/35 41/104/35 43/105/35
f 48/106/36 42/107/36 46/108/36
f 2/1/1 4/109/1 3/2/1
f 4/4/2 8/110/2 7/5/2
f 8/7/3 6/111/3 5/8/3
f 6/10/4 2/112/4 1/11/4
f 7/13/5 5/113/5 1/14/5
f 4/16/6 2/114/6 6/17/6
f 10/19/7 12/115/7 11/20/7
f 11/22/8 12/116/8 16/23/8
f 16/25/9 14/117/9 13/26/9
f 14/28/10 10/118/10 9/29/10
f 15/31/11 13/119/11 9/32/11
f 16/34/12 12/120/12 10/35/12
f 17/37/13 18/121/13 20/38/13
f 20/40/14 24/122/14 23/41/14
f 24/43/15 22/123/15 21/44/15
f 22/46/16 18/124/16 17/47/16
f 23/49/17 21/125/17 17/50/17
f 24/52/18 20/126/18 18/53/18
f 26/55/19 28/127/19 27/56/19
f 28/58/20 32/128/20 31/59/20
f 31/61/21 32/129/21 30/62/21
f 30/64/22 26/130/22 25/65/22
f 27/67/23 31/131/23 29/68/23
f 32/70/24 28/132/24 26/71/24
f 34/73/25 36/133/25 35/74/25
f 35/76/26 36/134/26 40/77/26
f 39/79/27 40/135/27 38/80/27
f 38/82/28 34/136/28 33/83/28
f 39/85/29 37/137/29 33/86/29
f 40/88/30 36/138/30 34/89/30
f 42/91/31 44/139/31 43/92/31
f 43/94/32 44/140/32 48/95/32
f 47/97/33 48/141/33 46/98/33
f 46/100/34 42/142/34 41/101/34
f 47/103/35 45/143/35 41/104/35
f 48/106/36 44/144/36 42/107/36
